<svg width="31" height="140" viewBox="0 0 31 140" fill="none" xmlns="http://www.w3.org/2000/svg">
<path d="M6.712 7.28816C6.712 6.05616 6.936 4.98416 7.384 4.07216C7.832 3.16016 8.456 2.45616 9.256 1.96016C10.056 1.46416 10.984 1.21616 12.04 1.21616L12.04 3.32816C11.384 3.32816 10.776 3.48016 10.216 3.78416C9.672 4.08816 9.232 4.52816 8.896 5.10416C8.576 5.69616 8.416 6.42416 8.416 7.28816C8.416 8.42416 8.688 9.30416 9.232 9.92816C9.776 10.5522 10.456 10.8642 11.272 10.8642C11.944 10.8642 12.48 10.7202 12.88 10.4322C13.296 10.1442 13.632 9.75216 13.888 9.25616C14.144 8.77616 14.368 8.21616 14.56 7.57616C14.752 6.95216 14.968 6.29616 15.208 5.60816C15.656 4.31216 16.208 3.35216 16.864 2.72816C17.536 2.10416 18.408 1.79216 19.48 1.79216C20.376 1.77616 21.168 1.98416 21.856 2.41616C22.56 2.84816 23.104 3.45616 23.488 4.24016C23.888 5.04016 24.088 5.98416 24.088 7.07216C24.088 8.14416 23.888 9.07216 23.488 9.85616C23.088 10.6562 22.536 11.2722 21.832 11.7042C21.128 12.1522 20.328 12.3842 19.432 12.4002L19.432 10.2882C19.896 10.2882 20.352 10.1682 20.8 9.92816C21.264 9.68816 21.64 9.32016 21.928 8.82416C22.216 8.34416 22.36 7.73616 22.36 7.00016C22.376 6.08816 22.144 5.33616 21.664 4.74416C21.184 4.16816 20.52 3.88016 19.672 3.88016C18.952 3.88016 18.4 4.08016 18.016 4.48016C17.632 4.89616 17.312 5.47216 17.056 6.20816C16.816 6.94416 16.536 7.79216 16.216 8.75216C15.928 9.55216 15.592 10.2722 15.208 10.9122C14.824 11.5522 14.328 12.0482 13.72 12.4002C13.112 12.7682 12.336 12.9522 11.392 12.9522C10.592 12.9522 9.832 12.7442 9.112 12.3282C8.408 11.9122 7.832 11.2802 7.384 10.4322C6.936 9.60016 6.712 8.55216 6.712 7.28816ZM6.712 21.1632C6.712 20.0272 6.968 19.0032 7.48 18.0912C8.008 17.1952 8.736 16.4832 9.664 15.9552C10.608 15.4432 11.704 15.1872 12.952 15.1872C14.2 15.1872 15.288 15.4432 16.216 15.9552C17.16 16.4832 17.888 17.1952 18.4 18.0912C18.928 19.0032 19.192 20.0272 19.192 21.1632C19.192 22.5712 18.824 23.7552 18.088 24.7152C17.352 25.6912 16.368 26.3072 15.136 26.5632L15.136 24.4992C15.872 24.3392 16.44 23.9472 16.84 23.3232C17.256 22.6992 17.464 21.9712 17.464 21.1392C17.464 20.4672 17.296 19.8352 16.96 19.2432C16.624 18.6512 16.12 18.1712 15.448 17.8032C14.776 17.4352 13.944 17.2512 12.952 17.2512C11.96 17.2512 11.128 17.4352 10.456 17.8032C9.784 18.1712 9.272 18.6512 8.92 19.2432C8.584 19.8352 8.416 20.4672 8.416 21.1392C8.416 21.9712 8.616 22.6992 9.016 23.3232C9.432 23.9472 10.016 24.3392 10.768 24.4992L10.768 26.5632C9.568 26.3232 8.592 25.7152 7.84 24.7392C7.088 23.7632 6.712 22.5712 6.712 21.1632ZM7 29.3787L18.904 29.3787L18.904 31.2027L16.624 31.3707C17.408 31.7387 18.032 32.2987 18.496 33.0507C18.96 33.8027 19.192 34.7307 19.192 35.8347L17.08 35.8347L17.08 35.2827C17.08 34.5787 16.952 33.9307 16.696 33.3387C16.456 32.7467 16.04 32.2747 15.448 31.9227C14.856 31.5707 14.04 31.3947 13 31.3947L7 31.3947L7 29.3787ZM6.712 43.0761C6.712 41.9561 6.968 40.9481 7.48 40.0521C7.992 39.1561 8.712 38.4441 9.64 37.9161C10.584 37.4041 11.688 37.1481 12.952 37.1481C14.216 37.1481 15.312 37.4121 16.24 37.9401C17.184 38.4681 17.912 39.1801 18.424 40.0761C18.936 40.9881 19.192 42.0041 19.192 43.1241C19.192 44.2441 18.936 45.2521 18.424 46.1481C17.912 47.0441 17.184 47.7481 16.24 48.2601C15.312 48.7881 14.216 49.0521 12.952 49.0521C11.688 49.0521 10.584 48.7881 9.64 48.2601C8.712 47.7321 7.992 47.0121 7.48 46.1001C6.968 45.2041 6.712 44.1961 6.712 43.0761ZM8.44 43.0761C8.44 43.7641 8.608 44.4041 8.944 44.9961C9.28 45.5881 9.784 46.0681 10.456 46.4361C11.128 46.8041 11.96 46.9881 12.952 46.9881C13.944 46.9881 14.776 46.8041 15.448 46.4361C16.12 46.0841 16.624 45.6121 16.96 45.0201C17.296 44.4281 17.464 43.7961 17.464 43.1241C17.464 42.4361 17.296 41.7961 16.96 41.2041C16.624 40.6121 16.12 40.1321 15.448 39.7641C14.776 39.3961 13.944 39.2121 12.952 39.2121C11.96 39.2121 11.128 39.3961 10.456 39.7641C9.784 40.1321 9.28 40.6041 8.944 41.1801C8.608 41.7721 8.44 42.4041 8.44 43.0761ZM7 51.8552L24.28 51.8552L24.28 53.8712L7 53.8712L7 51.8552ZM7 57.1755L24.28 57.1755L24.28 59.1915L7 59.1915L7 57.1755Z" fill="white"/>
<path d="M25 129H16.75L16.75 85H11.25L11.25 129H3L14 140L25 129Z" fill="white"/>
</svg>
