<svg width="27" height="19" viewBox="0 0 27 19" fill="none" xmlns="http://www.w3.org/2000/svg">
<rect x="0.5" y="-0.000488281" width="26" height="19" fill="#D9D9D9" fill-opacity="0.26"/>
<path d="M13.8936 11.7657C13.6065 11.4786 13.447 11.1064 13.447 10.7023C13.447 10.5322 13.5746 10.4046 13.7448 10.4046C13.9149 10.4046 14.0425 10.5322 14.0425 10.7023C14.0425 11.1915 14.4572 11.6062 14.9464 11.6062L19.1574 11.6062C19.6465 11.6062 20.0506 11.2021 20.0612 10.7023V8.2991C20.0612 7.80994 19.6572 7.40586 19.1574 7.39523L14.957 7.38459C14.4678 7.38459 14.0638 7.78868 14.0531 8.28846C14.0531 8.45861 13.9255 8.58621 13.7554 8.58621C13.5852 8.58621 13.4576 8.45861 13.4576 8.28846C13.4576 7.45903 14.1276 6.7891 14.957 6.7891L19.168 6.7891C19.9974 6.7891 20.678 7.46966 20.678 8.2991L20.678 10.7023C20.678 11.5318 20.0081 12.2017 19.1786 12.2017L14.957 12.2123C14.5529 12.2123 14.1807 12.0528 13.8936 11.7657Z" fill="#282828"/>
<path d="M5.76879 11.7656C5.49231 11.4891 5.3328 11.1169 5.32217 10.7022L5.3328 8.2883C5.32217 7.4695 6.00273 6.78893 6.83217 6.78893L11.0432 6.78893C11.8513 6.78893 12.5532 7.49077 12.5425 8.2883C12.5425 8.45844 12.4149 8.58605 12.2448 8.58605C12.0746 8.58605 11.947 8.45844 11.947 8.2883C11.947 7.79915 11.5323 7.38443 11.0432 7.38443L6.8428 7.39506C6.35365 7.39506 5.94956 7.79915 5.93893 8.29894L5.93893 10.7022C5.93893 11.1913 6.34301 11.5954 6.8428 11.6061L11.0538 11.6061C11.5429 11.6061 11.947 11.202 11.9577 10.7022C11.9577 10.532 12.0853 10.4044 12.2554 10.4044C12.4256 10.4044 12.5532 10.532 12.5532 10.7022C12.5532 11.5316 11.8832 12.2015 11.0538 12.2015L6.83217 12.2122C6.41745 12.2015 6.04526 12.042 5.76879 11.7656Z" fill="#282828"/>
<path d="M7.82177 9.71345C7.7686 9.66028 7.7367 9.58584 7.7367 9.50077C7.7367 9.33063 7.8643 9.20303 8.03444 9.20303H17.6687C17.8388 9.20303 17.9664 9.33063 17.9664 9.50077C17.9664 9.67091 17.8388 9.79852 17.6687 9.79852H8.03444C7.94937 9.79852 7.87494 9.76662 7.82177 9.71345Z" fill="#282828"/>
</svg>
