<svg width="26" height="19" viewBox="0 0 26 19" fill="none"
    xmlns="http://www.w3.org/2000/svg">
    <rect y="0.000488281" width="26" height="19" fill="#F5F5F5"/>
    <path d="M13.3936 11.7667C13.1065 11.4796 12.947 11.1074 12.947 10.7033C12.947 10.5332 13.0746 10.4056 13.2448 10.4056C13.4149 10.4056 13.5425 10.5332 13.5425 10.7033C13.5425 11.1925 13.9572 11.6072 14.4464 11.6072L18.6574 11.6072C19.1465 11.6072 19.5506 11.2031 19.5612 10.7033L19.5612 8.30008C19.5612 7.81092 19.1572 7.40684 18.6574 7.3962L14.457 7.38557C13.9678 7.38557 13.5638 7.78965 13.5531 8.28944C13.5531 8.45958 13.4255 8.58719 13.2554 8.58719C13.0852 8.58719 12.9576 8.45958 12.9576 8.28944C12.9576 7.46 13.6276 6.79007 14.457 6.79007L18.668 6.79007C19.4974 6.79007 20.178 7.47064 20.178 8.30008L20.178 10.7033C20.178 11.5328 19.5081 12.2027 18.6786 12.2027L14.457 12.2133C14.0529 12.2133 13.6807 12.0538 13.3936 11.7667Z" fill="#282828"/>
    <path d="M5.26879 11.7665C4.99231 11.4901 4.8328 11.1179 4.82217 10.7032L4.8328 8.28928C4.82217 7.47048 5.50273 6.78991 6.33217 6.78991L10.5432 6.78991C11.3513 6.78991 12.0532 7.49174 12.0425 8.28928C12.0425 8.45942 11.9149 8.58703 11.7448 8.58703C11.5746 8.58703 11.447 8.45942 11.447 8.28928C11.447 7.80012 11.0323 7.3854 10.5432 7.3854L6.3428 7.39604C5.85365 7.39604 5.44956 7.80012 5.43893 8.29991L5.43893 10.7032C5.43893 11.1923 5.84301 11.5964 6.3428 11.607L10.5538 11.607C11.0429 11.607 11.447 11.2029 11.4577 10.7032C11.4577 10.533 11.5853 10.4054 11.7554 10.4054C11.9256 10.4054 12.0532 10.533 12.0532 10.7032C12.0532 11.5326 11.3832 12.2025 10.5538 12.2025L6.33217 12.2132C5.91745 12.2025 5.54526 12.043 5.26879 11.7665Z" fill="#282828"/>
    <path d="M7.32177 9.71442C7.2686 9.66126 7.2367 9.58682 7.2367 9.50175C7.2367 9.33161 7.3643 9.204 7.53444 9.204H17.1687C17.3388 9.204 17.4664 9.33161 17.4664 9.50175C17.4664 9.67189 17.3388 9.7995 17.1687 9.7995H7.53444C7.44937 9.7995 7.37494 9.76759 7.32177 9.71442Z" fill="#282828"/>
</svg>
