<svg width="116" height="116" viewBox="0 0 116 116" fill="none" xmlns="http://www.w3.org/2000/svg">
<rect x="58" y="9.20936" width="69" height="69" transform="rotate(45 58 9.20936)" fill="black" stroke="white" stroke-width="5"/>
<path d="M38.687 31.6162L58.2549 12.0483L64.936 18.7294C67.2282 21.0216 68.7004 23.3138 69.3527 25.6061C70.0422 27.8983 70.005 30.1347 69.2409 32.3151C68.5141 34.4955 67.163 36.5734 65.1875 38.5489C63.2121 40.5243 61.1249 41.8847 58.9258 42.6302C56.764 43.3756 54.5277 43.4129 52.2168 42.742C49.9432 42.0711 47.6603 40.5895 45.368 38.2973L38.687 31.6162ZM45.3401 32.1194L48.2753 35.0546C49.9153 36.6946 51.4714 37.7289 52.9436 38.1575C54.4345 38.5675 55.8788 38.4836 57.2765 37.9059C58.6929 37.3096 60.1092 36.3032 61.5255 34.8869C62.9233 33.4892 63.9203 32.0821 64.5166 30.6658C65.113 29.2494 65.2062 27.7958 64.7962 26.3049C64.3862 24.8141 63.3612 23.2486 61.7212 21.6086L58.786 18.6735L45.3401 32.1194Z" fill="white"/>
<path d="M40.9642 86.2201L67.6862 73.8094L71.7113 77.8345L59.3006 104.557L55.4992 100.755L58.4621 94.6615L50.8312 87.0307L44.7097 89.9656L40.9642 86.2201ZM54.6047 85.2138L60.279 90.888L65.5619 79.9029L54.6047 85.2138Z" fill="white"/>
<path d="M71.5001 71.5002C64.0442 78.956 51.9558 78.956 44.4999 71.5002C37.0441 64.0443 37.0441 51.9559 44.4999 44.5001C51.9558 37.0442 64.0442 37.0442 71.5001 44.5001C78.9559 51.9559 78.9559 64.0443 71.5001 71.5002ZM47.942 47.9421C42.3871 53.497 42.3871 62.5032 47.942 68.0581C53.4969 73.613 62.5031 73.613 68.058 68.0581C73.6129 62.5032 73.6129 53.497 68.058 47.9421C62.5031 42.3872 53.4969 42.3872 47.942 47.9421Z" fill="white"/>
</svg>
