<svg width="225" height="207" viewBox="0 0 225 207" fill="none" xmlns="http://www.w3.org/2000/svg">
<path d="M8.09558 111V32.8102H34.7918C43.9512 32.8102 51.4723 34.4485 57.3551 37.725C63.3125 40.9271 67.706 45.4695 70.5357 51.3524C73.4399 57.1607 74.892 64.0117 74.892 71.9051C74.892 79.7986 73.4399 86.6867 70.5357 92.5696C67.706 98.3779 63.3125 102.92 57.3551 106.197C51.4723 109.399 43.9512 111 34.7918 111H8.09558ZM22.3931 98.713H34.1216C40.6747 98.713 45.8501 97.6705 49.6479 95.5854C53.4457 93.4259 56.1637 90.3728 57.8019 86.4261C59.4402 82.4049 60.2593 77.5646 60.2593 71.9051C60.2593 66.3201 59.4402 61.517 57.8019 57.4958C56.1637 53.4747 53.4457 50.3843 49.6479 48.2248C45.8501 46.0652 40.6747 44.9855 34.1216 44.9855H22.3931V98.713Z" fill="black"/>
<path d="M91.4402 158.212L119.365 59.0223H133.328L105.291 158.212H91.4402Z" fill="black"/>
<path d="M147.678 172.592L176.274 94.4025H192.358L220.953 172.592H205.762L199.507 154.497H169.013L162.646 172.592H147.678ZM172.923 143.327H195.598L184.204 110.822L172.923 143.327Z" fill="black"/>
</svg>
