<svg width="492" height="485" viewBox="0 0 492 485" fill="none"
    xmlns="http://www.w3.org/2000/svg">
    <rect width="491.5" height="485" fill="white"/>
    <path d="M141.596 250V171.81H168.292C177.451 171.81 184.972 173.448 190.855 176.725C196.812 179.927 201.206 184.47 204.036 190.352C206.94 196.161 208.392 203.012 208.392 210.905C208.392 218.799 206.94 225.687 204.036 231.57C201.206 237.378 196.812 241.92 190.855 245.197C184.972 248.399 177.451 250 168.292 250H141.596ZM155.893 237.713H167.622C174.175 237.713 179.35 236.671 183.148 234.585C186.946 232.426 189.664 229.373 191.302 225.426C192.94 221.405 193.759 216.565 193.759 210.905C193.759 205.32 192.94 200.517 191.302 196.496C189.664 192.475 186.946 189.384 183.148 187.225C179.35 185.065 174.175 183.985 167.622 183.985H155.893V237.713Z" fill="black"/>
    <path d="M224.94 297.212L252.865 198.022H266.828L238.791 297.212H224.94Z" fill="black"/>
    <path d="M281.178 311.592L309.774 233.403H325.858L354.453 311.592H339.262L333.007 293.497H302.513L296.146 311.592H281.178ZM306.423 282.327H329.098L317.704 249.822L306.423 282.327Z" fill="black"/>
</svg>
