<svg width="292" height="292" viewBox="0 0 292 292" fill="none" xmlns="http://www.w3.org/2000/svg">
<path d="M171.965 166.318C184.153 178.506 198.812 185.824 212.659 187.802C226.074 189.719 238.69 186.586 247.325 177.951C255.96 169.316 259.093 156.7 257.176 143.284C255.198 129.438 247.88 114.779 235.692 102.59C210.655 77.553 180.457 62.5088 151.874 58.4254C123.722 54.4038 97.1738 61.0524 78.9015 79.3246C60.6293 97.5969 53.9806 124.145 58.0022 152.297C62.0854 180.88 77.1297 211.078 102.167 236.115L96.0978 242.185C69.738 215.825 53.8753 183.866 49.5383 153.506C45.1395 122.714 52.5567 93.5305 72.8321 73.2551C93.1076 52.9795 122.291 45.5624 153.083 49.9615C183.443 54.2987 215.402 70.1613 241.762 96.521C255.272 110.031 263.408 126.451 265.64 142.075C267.934 158.131 264.033 173.382 253.394 184.02C242.756 194.659 227.506 198.56 211.45 196.266C195.825 194.034 179.405 185.898 165.895 172.388L171.965 166.318Z" fill="white"/>
</svg>
