<svg width="192" height="193" viewBox="0 0 192 193" fill="none" xmlns="http://www.w3.org/2000/svg">
<rect y="40.304" width="155.723" height="157.827" rx="77.8613" transform="rotate(-15 0 40.304)" fill="#BFBFA9"/>
<path d="M93.709 58.3012C93.709 58.3012 119.302 55.6162 126.94 91.5699C126.969 91.7031 130.327 92.8553 130.605 93.0001C133.076 94.2871 135.365 96.1703 136.823 98.6998C142.015 107.707 135.426 120.187 128.643 124.849C126.11 126.59 123.28 127.864 120.339 128.746C101.22 134.478 72.3785 128.901 64.5718 105.007C64.2918 104.15 64.0469 103.282 63.8362 102.408C62.7189 97.7732 62.6138 92.9962 63.1506 88.3908C63.1499 88.3911 66.6507 58.5542 93.709 58.3012Z" fill="#A47539"/>
<g style="mix-blend-mode:multiply" opacity="0.5">
<path d="M127.667 91.7862C127.576 92.5185 127.535 93.434 127.588 93.9367C127.821 96.092 129.089 98.0398 130.713 99.2473C132.255 100.394 134.155 100.894 135.847 100.819C136.418 100.794 137.088 100.679 137.664 100.544C135.472 94.7129 129.692 92.4211 127.667 91.7862Z" fill="#FEB3A4"/>
</g>
<g style="mix-blend-mode:multiply" opacity="0.5">
<path d="M97.2562 116.791C101.557 114.564 103.098 108.932 100.699 104.211C98.2998 99.4913 92.8686 97.4707 88.5681 99.6983C84.2675 101.926 82.7262 107.558 85.1253 112.278C87.5245 116.998 92.9556 119.019 97.2562 116.791Z" fill="#FEB3A4"/>
</g>
<path opacity="0.3" d="M115.846 96.8003C115.846 96.8003 118.734 92.0014 122.695 94.7243Z" fill="#633B1D"/>
<path d="M84.538 125.212C73.2968 135.303 57.1289 121.975 58.4425 111.674C59.2805 105.103 66.181 102.747 71.6849 107.056C74.9331 109.599 77.9586 113.154 80.0972 116.758" fill="#A47539"/>
<path opacity="0.3" d="M69.9304 113.365C72.0573 114.633 74.0769 116.821 76.1052 117.798C75.1684 115.5 74.007 113.089 72.2948 111.252C70.5561 109.387 67.9693 108.162 65.8594 108.89C63.2446 109.792 61.8842 113.523 62.357 116.444C62.0739 114.696 65.1537 112.629 66.4887 112.442C69.5358 115.754 72.3366 123.147 72.3366 123.147C72.8802 118.387 71.2995 115.185 69.9304 113.365Z" fill="#633B1D"/>
<path d="M122.513 104.758C124.272 104.339 125.81 103.385 126.845 101.479C127.386 100.483 128.034 99.841 129.298 100.23C132.326 101.163 134.025 105.064 134.058 107.975C134.095 111.171 132.437 114.199 130.203 116.482C124.193 122.627 118.458 123.144 110.423 122.398C104.098 121.812 95.1688 119.606 95.1624 111.694C95.1549 101.897 106.856 103.467 113.455 104.342C116.257 104.714 119.672 105.434 122.513 104.758Z" fill="white"/>
<mask id="mask0_39_2863" style="mask-type:alpha" maskUnits="userSpaceOnUse" x="95" y="100" width="40" height="23">
<path d="M122.509 104.758C124.268 104.339 125.806 103.385 126.841 101.479C127.382 100.483 128.03 99.841 129.295 100.23C132.322 101.163 134.021 105.064 134.055 107.975C134.091 111.171 132.433 114.199 130.2 116.482C124.189 122.627 118.454 123.144 110.419 122.398C104.094 121.812 95.1649 119.606 95.1585 111.694C95.151 101.897 106.852 103.467 113.451 104.342C116.253 104.714 119.668 105.434 122.509 104.758Z" fill="white"/>
</mask>
<g mask="url(#mask0_39_2863)">
<path fill-rule="evenodd" clip-rule="evenodd" d="M101.397 121.299L103.749 100.16L104.902 100.299L102.55 121.439L101.397 121.299ZM118.421 123.365L118.207 101.901L119.367 101.897L119.582 123.361L118.421 123.365ZM132.497 114.397L125.702 100.44L126.742 99.9264L133.537 113.884L132.497 114.397Z" fill="#D1D3D4"/>
</g>
<path d="M110.183 93.3464C107.103 92.2465 104.147 93.26 102.623 94.1545C102.483 94.2366 102.308 94.0818 102.385 93.939C105.003 89.0535 108.547 91.085 110.362 93.1025C110.47 93.2234 110.336 93.4011 110.183 93.3464Z" fill="black"/>
<path d="M124.763 87.9775C125.164 89.4846 124.924 91.2824 123.153 91.5576C121.667 91.7886 120.783 89.9653 120.532 89.0185C120.091 87.3626 120.49 85.5797 121.683 85.2576C122.966 84.9113 124.362 86.4705 124.763 87.9775Z" fill="black"/>
<path d="M105.68 80.6004C103.013 80.8637 100.536 82.5642 99.2247 85.0185C98.8018 85.8098 98.9367 86.9762 99.7471 87.5247C100.496 88.0323 101.59 87.9558 102.042 87.1079C102.178 86.8537 102.325 86.6079 102.487 86.373C102.538 86.2999 102.693 86.1525 102.728 86.0551C102.754 86.0252 102.78 85.9956 102.807 85.9662C102.973 85.7844 103.148 85.6119 103.331 85.449C103.436 85.3558 103.543 85.2667 103.652 85.1801C103.687 85.153 103.721 85.1266 103.757 85.1C103.86 85.0518 103.969 84.9588 104.061 84.9049C104.18 84.8345 104.301 84.7684 104.425 84.7056C104.641 84.5961 104.862 84.4978 105.088 84.4121C105.119 84.4 105.151 84.3889 105.182 84.3776C105.308 84.3447 105.432 84.3089 105.559 84.2804C105.829 84.2201 106.102 84.1792 106.378 84.1514C107.24 84.0666 107.875 83.0137 107.657 82.1026C107.416 81.0999 106.603 80.5096 105.68 80.6004Z" fill="black"/>
<path d="M123.622 78.9799C122.348 77.9347 120.758 77.451 119.222 77.5984C118.807 77.6383 118.385 77.9165 118.148 78.2679C117.914 78.6139 117.783 79.1484 117.873 79.5905C117.966 80.0494 118.184 80.5105 118.557 80.791C118.936 81.0756 119.351 81.2094 119.801 81.1668C119.875 81.1596 119.949 81.1614 120.023 81.1581C120.25 81.175 120.474 81.2108 120.698 81.2634C120.961 81.3564 121.215 81.4739 121.462 81.6156C121.546 81.6756 121.633 81.7313 121.714 81.7974C122.063 82.0833 122.538 82.2264 122.958 82.1732C123.359 82.1222 123.808 81.8667 124.031 81.503C124.263 81.1266 124.403 80.6532 124.307 80.1804C124.211 79.709 123.991 79.2825 123.622 78.9799Z" fill="black"/>
<mask id="mask1_39_2863" style="mask-type:alpha" maskUnits="userSpaceOnUse" x="106" y="55" width="41" height="48">
<path d="M123.188 79.3309C119.125 69.5493 112.137 63.499 106.94 63.9112L127.991 55.0257L146.673 86.6261L138.323 102.553C137.448 96.2974 130.445 92.8334 127.053 91.8833C126.757 89.2855 124.353 82.4326 123.188 79.3309Z" fill="#C4C4C4"/>
</mask>
<g mask="url(#mask1_39_2863)">
<path d="M131.664 86.3299C127.723 76.3884 116.981 73.3981 112.212 73.7373C111.786 68.5035 113.806 68.2908 117.88 68.0303C132.111 67.1202 137.506 78.5089 139.013 84.6449C134.186 86.7374 132.182 87.2464 131.664 86.3299Z" fill="black"/>
<ellipse rx="3.76074" ry="1.99726" transform="matrix(-0.995673 0.216639 0.101025 0.978149 135.285 85.5046)" fill="#2D2D2D"/>
<path opacity="0.6" fill-rule="evenodd" clip-rule="evenodd" d="M131.545 86.0418C127.512 76.3305 116.932 73.4013 112.209 73.7373C111.744 72.5495 115.246 72.2029 119.259 72.5914C129.574 73.5901 133.571 78.1672 135.077 84.3032C135.063 84.3093 135.05 84.3153 135.036 84.3213C135.282 85.3716 135.554 86.7765 135.489 87.4582C133.421 87.9081 131.654 87.3982 131.542 86.3193C131.533 86.2282 131.534 86.1355 131.545 86.0418Z" fill="#2D2D2D"/>
<path d="M128.059 90.8366C124.362 80.6485 113.787 77.2042 109.057 77.3569C108.744 72.0588 110.749 71.9245 114.788 71.8236C128.899 71.4709 134.006 83.1771 135.372 89.4285C130.549 91.348 128.554 91.782 128.059 90.8366Z" fill="black"/>
<ellipse rx="3.73086" ry="2.01057" transform="matrix(-0.998345 0.180452 0.0793103 0.984451 131.665 90.148)" fill="#2D2D2D"/>
<path opacity="0.6" fill-rule="evenodd" clip-rule="evenodd" d="M127.951 90.5439C124.159 80.5824 113.742 77.2056 109.057 77.3568C108.622 76.1398 112.097 75.9294 116.062 76.4809C126.255 77.8986 130.119 82.676 131.484 88.9274C131.47 88.9328 131.457 88.9382 131.444 88.9435C131.666 90.0131 131.906 91.4419 131.827 92.1273C129.77 92.4991 128.031 91.9143 127.943 90.8212C127.936 90.7298 127.939 90.6371 127.951 90.5439Z" fill="#2D2D2D"/>
<path d="M125.973 99.4538C124.995 88.325 115.88 81.7501 111.387 80.4736C112.394 75.1719 114.315 75.6445 118.145 76.7635C131.524 80.6733 133.458 93.7193 133.208 100.275C128.193 100.707 126.207 100.532 125.973 99.4538Z" fill="black"/>
<ellipse rx="3.70307" ry="2.02164" transform="matrix(-0.992195 -0.124697 -0.166353 0.986066 129.536 99.8649)" fill="#2D2D2D"/>
<path opacity="0.6" fill-rule="evenodd" clip-rule="evenodd" d="M125.943 99.1281C124.817 88.1968 115.836 81.7377 111.387 80.4736C111.276 79.146 114.601 79.9874 118.201 81.7254C127.455 86.1935 129.92 92.0542 129.669 98.6103C129.654 98.6116 129.64 98.6129 129.625 98.6142C129.571 99.7324 129.446 101.209 129.204 101.858C127.175 101.603 125.68 100.504 125.866 99.4032C125.882 99.3094 125.908 99.2175 125.943 99.1281Z" fill="#2D2D2D"/>
<path opacity="0.5" d="M134.932 75.71C134.889 75.3899 133.596 73.9933 132.955 73.335L127.22 77.5146L123.211 84.4856C123.894 86.5677 125.699 90.7892 127.453 91.0184C129.208 91.2477 130.839 90.5493 131.75 90.0463C132.009 89.4373 131.552 85.0657 130.042 81.2398C132.2 80.3812 134.986 76.1102 134.932 75.71Z" fill="black"/>
<path d="M129.044 74.2587C124.527 64.5675 113.633 62.2262 108.893 62.8513C108.162 57.6502 110.165 57.3166 114.214 56.812C128.362 55.0488 134.414 66.0978 136.278 72.1349C131.585 74.5142 129.615 75.1428 129.044 74.2587Z" fill="black"/>
<ellipse rx="3.76043" ry="1.99753" transform="matrix(-0.980902 0.276127 0.158239 0.970593 132.612 73.2169)" fill="#2D2D2D"/>
<path opacity="0.6" fill-rule="evenodd" clip-rule="evenodd" d="M128.91 73.9726C124.314 64.5214 113.588 62.2324 108.896 62.8513C108.362 61.693 111.836 61.1367 115.863 61.2838C126.215 61.662 130.472 65.9928 132.336 72.0299C132.321 72.0372 132.307 72.0444 132.293 72.0517C132.6 73.0856 132.953 74.4714 132.928 75.1558C130.891 75.7292 129.098 75.3261 128.924 74.2553C128.909 74.1632 128.904 74.0687 128.91 73.9726Z" fill="#2D2D2D"/>
<path d="M125.71 78.9755C121.422 69.0236 110.667 66.2188 105.957 66.6552C105.333 61.3833 107.325 61.1289 111.35 60.7856C125.41 59.5864 131.194 70.9697 132.924 77.1305C128.224 79.3368 126.259 79.8899 125.71 78.9755Z" fill="black"/>
<ellipse rx="3.73041" ry="2.01093" transform="matrix(-0.985733 0.240157 0.136938 0.978143 129.266 78.0715)" fill="#2D2D2D"/>
<path opacity="0.6" fill-rule="evenodd" clip-rule="evenodd" d="M125.577 78.689C121.208 68.9696 110.615 66.223 105.95 66.6552C105.443 65.466 108.899 65.0473 112.888 65.36C123.143 66.1639 127.278 70.7027 129.008 76.8635C128.995 76.8697 128.981 76.876 128.968 76.8822C129.253 77.937 129.576 79.3493 129.538 80.0383C127.507 80.5331 125.738 80.0536 125.586 78.9672C125.573 78.8761 125.57 78.7831 125.577 78.689Z" fill="#2D2D2D"/>
<path d="M123.014 88.0066C121.383 76.9521 111.902 70.9334 107.343 69.9283C108.037 64.5736 109.982 64.9302 113.869 65.8178C127.45 68.919 130.146 81.8307 130.281 88.3928C125.302 89.1251 123.31 89.0694 123.014 88.0066Z" fill="black"/>
<ellipse rx="3.70126" ry="2.02272" transform="matrix(-0.997885 -0.0649977 -0.108022 0.994148 126.596 88.2029)" fill="#2D2D2D"/>
<path opacity="0.6" fill-rule="evenodd" clip-rule="evenodd" d="M122.961 87.6823C121.195 76.8343 111.854 70.9235 107.34 69.9283C107.151 68.6093 110.519 69.2498 114.213 70.7693C123.71 74.6758 126.513 80.3803 126.649 86.9424C126.634 86.9446 126.619 86.9468 126.604 86.949C126.616 88.0688 126.578 89.5505 126.375 90.2138C124.335 90.081 122.779 89.073 122.9 87.9624C122.91 87.8675 122.93 87.774 122.961 87.6823Z" fill="#2D2D2D"/>
<path opacity="0.5" d="M127.164 59.4054L125.739 58.5705L125.51 57.719L120.709 60.7293L115.887 73.3783L122.588 78.5795C126.114 78.2838 128.571 76.3679 129.359 75.447L124.666 67.2742C126.85 66.0807 126.496 63.6403 126.488 63.2369C126.482 62.9141 125.695 61.8947 125.302 61.4253C125.764 61.0581 126.736 59.9257 127.164 59.4054Z" fill="black"/>
</g>
<path d="M120.405 61.997C111.95 55.5279 101.266 58.5893 97.3767 61.3796C94.331 57.1095 95.9427 55.8686 99.2794 53.5106C110.938 45.272 121.373 52.2218 125.803 56.6998C122.763 61.0252 121.317 62.5122 120.405 61.997Z" fill="black"/>
<ellipse rx="3.76984" ry="1.99342" transform="matrix(-0.735405 0.705977 0.588705 0.788269 123.069 59.3892)" fill="#2D2D2D"/>
<path opacity="0.6" fill-rule="evenodd" clip-rule="evenodd" d="M120.16 61.8126C111.745 55.587 101.228 58.6163 97.3762 61.3797C96.3712 60.6036 99.1773 58.471 102.795 56.7021C112.095 52.1546 117.846 53.9895 122.276 58.4675C122.267 58.4797 122.259 58.4919 122.25 58.5041C122.999 59.2767 123.951 60.341 124.246 60.9606C122.714 62.4305 120.948 62.9185 120.3 62.0507C120.245 61.9777 120.199 61.8981 120.16 61.8126Z" fill="#2D2D2D"/>
<path d="M119.647 67.7555C111.273 60.9469 100.498 63.5311 96.5471 66.1405C93.564 61.7565 95.2028 60.5909 98.592 58.3879C110.433 50.691 120.786 58.0642 125.155 62.7153C122.03 66.8902 120.553 68.308 119.647 67.7555Z" fill="black"/>
<ellipse rx="3.7387" ry="2.00752" transform="matrix(-0.756426 0.6766 0.573175 0.804763 122.362 65.2745)" fill="#2D2D2D"/>
<path opacity="0.6" fill-rule="evenodd" clip-rule="evenodd" d="M119.394 67.5581C111.056 60.9975 100.453 63.5566 96.5403 66.1405C95.545 65.3241 98.3978 63.3225 102.059 61.7183C111.47 57.5942 117.21 59.6711 121.579 64.3223C121.57 64.3345 121.56 64.3468 121.551 64.359C122.289 65.1607 123.226 66.2608 123.51 66.8901C121.948 68.2871 120.167 68.6964 119.531 67.8041C119.477 67.7283 119.431 67.6461 119.394 67.5581Z" fill="#2D2D2D"/>
<path d="M122.286 76.2466C115.747 67.2061 104.61 66.3379 100.128 67.5963C98.2678 62.5172 100.147 61.9162 103.983 60.8703C117.387 57.2159 125.723 67.4021 128.871 73.1614C124.82 76.1599 123.038 77.0501 122.286 76.2466Z" fill="black"/>
<ellipse rx="3.69776" ry="2.02577" transform="matrix(-0.910533 0.413436 0.363102 0.931749 125.537 74.7306)" fill="#2D2D2D"/>
<path opacity="0.6" fill-rule="evenodd" clip-rule="evenodd" d="M122.097 75.9881C115.534 67.1896 104.568 66.35 100.129 67.5963C99.3531 66.515 102.617 65.4948 106.575 65.1007C116.75 64.0876 121.855 67.8271 125.003 73.5864C124.991 73.5948 124.98 73.6031 124.969 73.6115C125.497 74.5996 126.148 75.9331 126.274 76.6181C124.415 77.4625 122.578 77.3019 122.172 76.2594C122.138 76.1723 122.113 76.0816 122.097 75.9881Z" fill="#2D2D2D"/>
<path d="M59.7979 103.518C59.04 91.4158 68.3851 81.9629 73.3236 79.393C71.272 74.0251 69.1479 75.046 64.944 77.2695C50.256 85.0378 50.2428 99.4369 51.6381 106.343C57.464 105.45 59.7125 104.728 59.7979 103.518Z" fill="black"/>
<ellipse rx="4.39435" ry="2.15465" transform="matrix(0.941389 -0.337324 0.335411 0.942072 55.7735 104.917)" fill="#2D2D2D"/>
<path opacity="0.6" fill-rule="evenodd" clip-rule="evenodd" d="M59.7798 103.163C59.2238 91.2314 68.4347 81.9377 73.3248 79.393C73.2282 77.9507 69.5557 79.7427 65.7201 82.5625C55.8597 89.8118 54.0226 96.7109 55.4179 103.617C55.4351 103.615 55.4522 103.612 55.4693 103.61C55.7198 104.785 56.1126 106.321 56.5005 106.947C58.7852 106.129 60.3137 104.556 59.9146 103.435C59.8806 103.34 59.8355 103.249 59.7798 103.163Z" fill="#2D2D2D"/>
<path d="M69.0569 106.877C63.4247 96.1397 68.0498 83.6045 71.4848 79.1955C67.4288 75.1494 65.9169 76.9686 63.0074 80.7544C52.8419 93.9817 58.7122 107.138 62.8008 112.864C67.7266 109.616 69.4736 108.017 69.0569 106.877Z" fill="black"/>
<ellipse rx="4.40712" ry="2.14852" transform="matrix(0.715044 -0.69908 0.691422 0.722451 65.9767 109.834)" fill="#2D2D2D"/>
<path opacity="0.6" fill-rule="evenodd" clip-rule="evenodd" d="M68.8955 106.56C63.5167 95.8945 68.0849 83.5613 71.4862 79.1956C70.8093 77.9186 68.2061 81.0886 65.8748 85.2653C59.8814 96.003 61.0314 103.071 65.12 108.797C65.1348 108.787 65.1495 108.777 65.1642 108.768C65.8718 109.736 66.8566 110.976 67.4648 111.386C69.2052 109.685 69.9509 107.61 69.1305 106.753C69.0602 106.68 68.9816 106.615 68.8955 106.56Z" fill="#2D2D2D"/>
<path d="M77.6131 106.841C71.7974 96.2037 76.2053 83.5876 79.5634 79.1183C75.4387 75.1438 73.9586 76.9896 71.1151 80.8265C61.1802 94.2321 67.2757 107.285 71.4618 112.938C76.3304 109.603 78.0494 107.974 77.6131 106.841Z" fill="black"/>
<ellipse rx="4.40795" ry="2.14812" transform="matrix(0.702678 -0.711508 0.703822 0.710377 74.5819 109.853)" fill="#2D2D2D"/>
<path opacity="0.6" fill-rule="evenodd" clip-rule="evenodd" d="M77.4478 106.53C71.8843 95.9592 76.2393 83.5442 79.5648 79.1183C78.866 77.8534 76.3182 81.069 74.0594 85.2867C68.2526 96.1294 69.5242 103.177 73.7103 108.83C73.7243 108.821 73.7381 108.811 73.752 108.802C74.476 109.758 75.4813 110.98 76.096 111.378C77.8066 109.646 78.5165 107.559 77.6815 106.716C77.6112 106.645 77.5331 106.583 77.4478 106.53Z" fill="#2D2D2D"/>
<path d="M85.0652 106.464C77.5554 96.9663 79.7784 83.7639 82.3346 78.7789C77.6073 75.5648 76.4598 77.6395 74.3042 81.9124C66.7726 96.8414 74.9629 108.674 80.0323 113.534C84.2657 109.409 85.6848 107.507 85.0652 106.464Z" fill="black"/>
<ellipse rx="4.41681" ry="2.14385" transform="matrix(0.57125 -0.820776 0.813662 0.581338 82.5878 109.954)" fill="#2D2D2D"/>
<path opacity="0.6" fill-rule="evenodd" clip-rule="evenodd" d="M84.8459 106.185C77.5965 96.7096 79.8011 83.7153 82.3324 78.7789C81.4323 77.6507 79.4635 81.26 77.9474 85.8083C74.0497 97.501 76.4838 104.236 81.5531 109.096C81.5655 109.084 81.5778 109.072 81.59 109.06C82.4632 109.879 83.6581 110.912 84.3303 111.201C85.7237 109.198 86.0724 107.017 85.109 106.329C85.0274 106.271 84.9395 106.223 84.8459 106.185Z" fill="#2D2D2D"/>
<path d="M82.4629 102.614C82.0017 102.089 81.4914 100.982 81.2939 100.494C74.0324 95.4428 58.1595 82.6199 57.1259 83.5459C56.0922 84.4718 53.4991 88.9455 52.889 90.1568L58.1595 91.888C58.1313 94.025 59.2308 97.3809 60.9284 97.7372C62.2866 98.0223 65.1007 97.3629 66.3379 96.9975L67.6163 99.8999C67.9072 100.363 68.827 101.279 70.1787 101.241C71.5305 101.204 73.5395 100.206 74.3751 99.7113C74.5031 100.488 75.8234 102.5 76.4675 103.409C78.4097 103.781 81.2737 103.034 82.4629 102.614Z" fill="black"/>
<path d="M59.8344 86.5831C62.3177 74.74 73.8461 68.187 79.2942 67.0563C78.7403 61.3376 76.4195 61.7428 71.7723 62.7397C55.5355 66.2225 51.6982 80.065 51.2101 87.085C57.0691 87.8074 59.4306 87.7234 59.8344 86.5831Z" fill="black"/>
<ellipse rx="4.39598" ry="2.15387" transform="matrix(0.997631 -0.0687974 0.073455 0.997299 55.5828 86.8369)" fill="#2D2D2D"/>
<path opacity="0.6" fill-rule="evenodd" clip-rule="evenodd" d="M59.91 86.2376C62.5425 74.6125 73.8995 68.1759 79.2944 67.0563C79.5843 65.6432 75.5644 66.3695 71.1143 68.0398C59.6738 72.3339 56.0685 78.4694 55.5804 85.4894C55.5976 85.4915 55.6147 85.4937 55.6317 85.4958C55.5613 86.6937 55.5322 88.278 55.7403 88.985C58.1623 88.818 60.055 87.7209 59.9676 86.5345C59.9602 86.4339 59.9408 86.3347 59.91 86.2376Z" fill="#2D2D2D"/>
<path d="M67.8721 92.326C65.2892 80.4725 73.0818 69.6743 77.5676 66.3671C74.7284 61.3753 72.7863 62.7143 68.9731 65.5649C55.6505 75.5246 57.8204 89.7696 60.2449 96.385C65.8609 94.5987 67.9713 93.536 67.8721 92.326Z" fill="black"/>
<ellipse rx="4.39701" ry="2.15338" transform="matrix(0.877691 -0.479227 0.474228 0.880402 64.1187 94.3334)" fill="#2D2D2D"/>
<path opacity="0.6" fill-rule="evenodd" clip-rule="evenodd" d="M67.8012 91.9764C65.4446 80.2607 73.1283 69.6418 77.5699 66.3672C77.2559 64.9555 73.902 67.2971 70.5429 70.6806C61.9074 79.3789 61.1397 86.4878 63.5642 93.1032C63.5812 93.0978 63.5982 93.0924 63.6151 93.0871C64.0405 94.2106 64.6614 95.6703 65.1393 96.2292C67.2707 95.0655 68.5413 93.2733 67.9773 92.2262C67.9289 92.1364 67.8699 92.053 67.8012 91.9764Z" fill="#2D2D2D"/>
<path d="M76.1408 94.614C73.3542 82.8065 80.9587 71.8716 85.3863 68.4855C82.4619 63.544 80.5433 64.9171 76.7803 67.8347C63.6328 78.0286 66.0476 92.2347 68.5855 98.8072C74.1693 96.922 76.2607 95.8223 76.1408 94.614Z" fill="black"/>
<ellipse rx="4.39746" ry="2.15316" transform="matrix(0.869114 -0.494612 0.489325 0.872102 72.4185 96.6875)" fill="#2D2D2D"/>
<path opacity="0.6" fill-rule="evenodd" clip-rule="evenodd" d="M76.062 94.2673C73.5031 82.593 81.0023 71.8384 85.3865 68.4856C85.0482 67.0795 81.7355 69.48 78.4356 72.9225C69.9523 81.7725 69.3073 88.8947 71.8452 95.4671C71.8617 95.4615 71.8783 95.4559 71.8948 95.4504C72.3394 96.5664 72.9853 98.0148 73.4726 98.5653C75.5834 97.3641 76.8228 95.5496 76.2409 94.5125C76.1913 94.4241 76.1314 94.3422 76.062 94.2673Z" fill="#2D2D2D"/>
<path d="M83.4324 96.2744C78.7085 85.103 84.3604 73.0111 88.1512 68.9115C84.4432 64.5376 82.7849 66.2212 79.5698 69.7448C68.3367 82.0559 73.0971 95.6573 76.698 101.706C81.8787 98.8894 83.7532 97.4458 83.4324 96.2744Z" fill="black"/>
<ellipse rx="4.40337" ry="2.15032" transform="matrix(0.771592 -0.636117 0.62884 0.777535 80.1131 98.9582)" fill="#2D2D2D"/>
<path opacity="0.6" fill-rule="evenodd" clip-rule="evenodd" d="M83.2942 95.9488C78.8144 84.869 84.3936 72.9713 88.1476 68.9114C87.5787 67.5822 84.7202 70.5185 82.0491 74.4805C75.1822 84.6661 75.742 91.8032 79.3429 97.8524C79.3577 97.8444 79.3724 97.8364 79.387 97.8285C80.012 98.8531 80.8904 100.171 81.4624 100.63C83.3388 99.0832 84.2546 97.0806 83.5078 96.1572C83.4451 96.0797 83.3736 96.0101 83.2942 95.9488Z" fill="#2D2D2D"/>
<path d="M61.4939 68.078C61.9359 67.635 63.5476 66.6488 64.2982 66.2111L81.3765 83.2336C80.7293 84.705 81.2817 88.7347 81.6387 90.5657C78.7598 91.0329 75.3818 90.0113 74.6612 89.1904C74.0847 88.5337 75.1792 82.5281 75.9633 80.2224C72.0472 81.6773 69.4515 79.8378 68.6801 78.8276C68.063 78.0195 68.6385 75.9319 69.0849 74.3589C63.7601 73.9199 61.8056 69.9887 61.4939 68.078Z" fill="black"/>
<path d="M71.5847 71.2369C78.5218 61.3937 91.7051 60.0235 97.163 61.1755C98.8994 55.7189 96.6045 55.1581 91.9362 54.2051C75.6259 50.8753 66.6573 62.0049 63.4508 68.2343C68.559 71.2474 70.7652 72.1185 71.5847 71.2369Z" fill="black"/>
<ellipse rx="4.41169" ry="2.14632" transform="matrix(0.941758 0.336292 -0.325262 0.945624 67.5738 69.7621)" fill="#2D2D2D"/>
<path opacity="0.6" fill-rule="evenodd" clip-rule="evenodd" d="M71.7883 70.9511C78.777 61.3672 91.7571 60.0347 97.1616 61.1755C97.9834 59.9985 93.9988 59.0496 89.2473 58.7921C77.0322 58.1301 71.3044 62.2987 68.0979 68.5281C68.1128 68.5369 68.1277 68.5457 68.1424 68.5545C67.6071 69.6226 66.9581 71.061 66.8719 71.7917C69.1665 72.6111 71.3392 72.3666 71.7247 71.2457C71.7574 71.1507 71.7785 71.0523 71.7883 70.9511Z" fill="#2D2D2D"/>
<path d="M76.8686 77.8877C82.7048 67.3358 95.6546 64.5282 101.2 65.0763C102.34 59.4579 100 59.1515 95.2604 58.7149C78.7002 57.1894 70.9838 69.2436 68.4662 75.792C73.8638 78.2297 76.149 78.8545 76.8686 77.8877Z" fill="black"/>
<ellipse rx="4.40634" ry="2.1489" transform="matrix(0.972802 0.231639 -0.221482 0.975164 72.7246 76.8602)" fill="#2D2D2D"/>
<path opacity="0.6" fill-rule="evenodd" clip-rule="evenodd" d="M77.0473 77.579C82.9632 67.281 95.7138 64.5336 101.205 65.0763C101.895 63.8154 97.8348 63.308 93.087 63.5724C80.8811 64.2522 75.6379 69.0266 73.1203 75.575C73.1364 75.5822 73.1524 75.5895 73.1684 75.5967C72.7511 76.7179 72.2607 78.2196 72.2534 78.9558C74.6207 79.5195 76.753 79.0383 77.0158 77.881C77.0382 77.7823 77.0486 77.6813 77.0473 77.579Z" fill="#2D2D2D"/>
<path d="M82.4893 86.2806C85.2621 74.5051 96.9494 68.2436 102.424 67.2498C102.01 61.5199 99.6801 61.8668 95.0092 62.7469C78.6897 65.8218 74.5139 79.5618 73.8539 86.5664C79.6944 87.4351 82.0576 87.4103 82.4893 86.2806Z" fill="black"/>
<ellipse rx="4.39653" ry="2.15361" transform="matrix(0.999041 -0.0437925 0.0490274 0.998797 78.2284 86.4278)" fill="#2D2D2D"/>
<path opacity="0.6" fill-rule="evenodd" clip-rule="evenodd" d="M82.5781 85.9405C85.4935 74.3845 97.0082 68.234 102.43 67.2499C102.755 65.8447 98.7176 66.47 94.2272 68.0282C82.6833 72.034 78.9283 78.0764 78.2684 85.081C78.2849 85.0834 78.3013 85.0859 78.3177 85.0884C78.218 86.284 78.15 87.867 78.3408 88.5789C80.7666 88.4726 82.6858 87.4234 82.6275 86.2354C82.6226 86.1358 82.6059 86.0373 82.5781 85.9405Z" fill="#2D2D2D"/>
<path fill-rule="evenodd" clip-rule="evenodd" d="M75.6645 103.266C80.3574 103.873 85.2841 105.238 88.392 106.312L88.0853 107.238C85.021 106.179 80.1597 104.833 75.5483 104.236C73.242 103.938 71.0171 103.829 69.1192 104.029C67.2097 104.231 65.6994 104.739 64.7515 105.61L64.0988 104.883C65.2696 103.807 67.0239 103.266 69.0123 103.056C71.0124 102.845 73.3187 102.962 75.6645 103.266ZM92.5129 123.557C92.9978 123.276 93.5134 122.978 94.0781 122.666L94.546 123.525C94.0286 123.811 93.5393 124.094 93.0674 124.367C91.7957 125.103 90.6503 125.766 89.4208 126.212C87.6928 126.838 85.7882 127.048 83.0369 126.579L83.1911 125.614C85.8057 126.059 87.54 125.852 89.0894 125.29C90.2336 124.876 91.2728 124.274 92.5129 123.557Z" fill="white"/>
<path d="M118.502 93.1895C105.343 96.6344 92.7236 103.24 88.059 106.113C91.8887 109.954 94.6218 116.421 93.8341 123.933C103.718 126.557 125.92 128.842 135.65 116.987C137.21 114.173 138.717 109.912 138.574 104.644C138.358 96.6708 130.792 92.7696 127.035 91.8156C125.163 91.9929 121.493 92.4065 118.502 93.1895Z" fill="#F7F7F7"/>
<path d="M87.2357 107.144C87.4808 106.268 89.2986 105.138 90.4015 104.775C91.1135 105.193 92.9855 107.551 94.7775 113.641C97.0176 121.255 96.1076 123.831 96.0477 124.354C96.0032 124.742 93.1813 124.108 92.5453 123.974C91.9094 123.84 91.7573 123.273 91.9876 121.893C92.4832 118.924 89.7843 111.43 88.7681 109.877C87.9552 108.635 87.5576 107.599 87.2357 107.144Z" fill="#EDEDED"/>
<path d="M124.375 98.3085C117.563 99.1605 105.505 107.015 100.328 110.836C120.218 99.6657 133.624 99.4807 137.841 100.785C136.191 99.6041 131.188 97.4564 124.375 98.3085Z" fill="#EDEDED"/>
<path d="M109.263 114.323C114.741 115.357 127.903 115.656 136.731 108.586C133.079 113.62 122.473 121.816 109.263 114.323Z" fill="#EDEDED"/>
<path fill-rule="evenodd" clip-rule="evenodd" d="M134.372 83.3121L125.126 85.4321L124.5 83.4703L133.907 81.4092L134.372 83.3121Z" fill="black"/>
<path fill-rule="evenodd" clip-rule="evenodd" d="M98.5367 80.2317C93.6761 82.4032 91.5624 88.6223 94.0322 94.2138C96.5019 99.8053 102.507 102.397 107.368 100.226C112.228 98.054 114.342 91.835 111.872 86.2435C109.403 80.652 103.397 78.0602 98.5367 80.2317ZM91.4961 92.6998C90.0392 86.8748 92.4855 80.7904 97.7455 78.4404C103.703 75.7788 110.776 79.0225 113.62 85.4626C113.621 85.4639 113.621 85.4652 113.622 85.4665C113.793 85.3366 113.982 85.205 114.188 85.0793C114.814 84.697 115.636 84.3451 116.577 84.2949C116.057 81.8995 116.154 79.5461 116.798 77.5355C117.599 75.036 119.272 73.0144 121.694 72.2258C124.112 71.4385 126.684 72.0732 128.855 73.5933C131.026 75.1139 132.856 77.5522 133.877 80.5312C134.899 83.5099 134.944 86.5359 134.143 89.0333C133.342 91.5327 131.669 93.5543 129.248 94.3429C126.83 95.1303 124.257 94.4955 122.086 92.9754C119.97 91.4937 118.18 89.1407 117.144 86.2652C116.433 86.1713 115.769 86.4063 115.192 86.7587C114.833 86.9783 114.534 87.2289 114.322 87.4303C115.956 93.3531 113.518 99.6229 108.159 102.017C102.201 104.679 95.1289 101.435 92.2843 94.9947C92.2269 94.8647 92.1716 94.7344 92.1185 94.6036L75.2795 96.2918C72.1393 96.6783 69.1561 97.6286 67.1285 98.9858C65.0947 100.347 64.6645 103.466 65.0953 105.216L63.2346 105.666C62.5184 102.757 63.7115 98.9197 66.0592 97.3482C68.411 95.774 71.709 94.7583 75.0341 94.3504L75.0444 94.3491L91.4961 92.6998ZM118.623 78.1652C117.965 80.2173 117.978 82.8018 118.874 85.4163C119.771 88.0307 121.358 90.1093 123.158 91.3701C124.959 92.6314 126.915 93.0424 128.64 92.4808C130.361 91.9204 131.662 90.4536 132.319 88.4036C132.976 86.3515 132.964 83.767 132.067 81.1524C131.17 78.5381 129.584 76.4594 127.783 75.1986C125.982 73.9374 124.026 73.5263 122.301 74.0879C120.58 74.6484 119.28 76.1152 118.623 78.1652Z" fill="black"/>
</svg>
